# xmcd
#
# Track frame offsets:
# 150
# 20872
# 27506
# 45879
# 66774
# 85675
# 103582
# 132676
# 155245
# 180582
# 206609
# 228337
# 243062
# 264173
# 287932
# 311237
#
# Disc length: 4510 seconds
#
#
# Revision: 0
# Processed by: cddbd v1.5.2PL0 Copyright (c) Steve Scherf et al.
# Submitted via: FreeRIP 2.951 
#
DISCID=e0119c10
DTITLE=vida Reluz - Ao vivo
DYEAR=1900
DGENRE=Católica
TTITLE0=Ao eterno Amor
TTITLE1=Declaramos
TTITLE2=Quem é filho de DEUS
TTITLE3=Nome Maravilhoso
TTITLE4=Como És Lindo
TTITLE5=Confia em Mim
TTITLE6=Acreditar no Amor
TTITLE7=Quem Não Te Louvará?
TTITLE8=O Amado
TTITLE9=DEUS é capaz
TTITLE10=Eternamente
TTITLE11=Gratidão
TTITLE12=DEUS imenso
TTITLE13=Perfeito é quem te criou
TTITLE14=Pouti-pourri: obra nova/Deus,quero louvar-te/ Celebramos
TTITLE15=Nova CRiatura
EXTD=
EXTT0=
EXTT1=
EXTT2=
EXTT3=
EXTT4=
EXTT5=
EXTT6=
EXTT7=
EXTT8=
EXTT9=
EXTT10=
EXTT11=
EXTT12=
EXTT13=
EXTT14=
EXTT15=
PLAYORDER=
